<?xml version="1.0" standalone="no"?>
<!DOCTYPE svg PUBLIC "-//W3C//DTD SVG 20010904//EN"
 "http://www.w3.org/TR/2001/REC-SVG-20010904/DTD/svg10.dtd">
<svg version="1.0" xmlns="http://www.w3.org/2000/svg"
 width="166.000000pt" height="178.000000pt" viewBox="0 0 166.000000 178.000000"
 preserveAspectRatio="xMidYMid meet">

<g transform="translate(0.000000,178.000000) scale(0.100000,-0.100000)"
fill="#000000" stroke="none">
<path d="M965 1463 c-36 -54 -99 -145 -140 -203 -41 -58 -102 -145 -134 -195
-33 -49 -64 -95 -68 -100 -28 -35 -70 -94 -116 -162 -29 -43 -137 -201 -240
-350 -103 -150 -187 -275 -187 -278 0 -3 110 -5 243 -5 220 0 245 2 259 18 9
9 59 80 112 157 54 77 129 185 168 240 123 174 180 259 188 281 5 12 34 59 66
105 32 46 90 131 129 189 90 132 246 356 264 381 13 18 6 19 -233 19 l-246 0
-65 -97z"/>
</g>
</svg>
